<?xml version="1.0" encoding="UTF-8"?>
<svg id="logo-47" xmlns="http://www.w3.org/2000/svg" version="1.1" xmlns:xlink="http://www.w3.org/1999/xlink" viewBox="0 0 34.5 26.1">
  <!-- Generator: Adobe Illustrator 29.3.0, SVG Export Plug-In . SVG Version: 2.1.0 Build 146)  -->
  <defs>
    <style>
      .st0 {
        fill: url(#linear-gradient);
      }
    </style>
    <linearGradient id="linear-gradient" x1="-1087.2" y1="832.8" x2="-1117.7" y2="832.8" gradientTransform="translate(-1085.6 -819.8) rotate(-180) scale(1 -1)" gradientUnits="userSpaceOnUse">
      <stop offset="0" stop-color="#42a5f5"/>
      <stop offset=".5" stop-color="#2196f3"/>
      <stop offset="1" stop-color="#64b5f6"/>
    </linearGradient>
  </defs>
  <path class="st0" d="M24,2.1c3-3,8-3,9.5,1,.3.8.5,1.6.7,2.4.7,3.3.3,6.8-1,9.9-1.3,3.1-3.5,5.8-6.3,7.7-2.8,1.9-6.2,2.9-9.6,2.9s-6.7-1-9.6-2.9c-2.8-1.9-5-4.6-6.3-7.7C0,12.3-.3,8.9.3,5.5c.2-.8.4-1.6.7-2.4C2.4-.9,7.5-.9,10.4,2.1l4.6,4.6c.4.4.4,1.2.3,1.8,0,.4,0,.8.1,1.1s.4.6.7.9c.3.2.7.3,1.1.3s.7-.1,1.1-.3c.3-.2.6-.5.7-.9s.2-.7.1-1.1c-.1-.6-.2-1.3.3-1.8,0,0,4.6-4.6,4.6-4.6Z"/>
</svg>